<?xml version="1.0" standalone="no"?>
<svg xmlns:xlink="http://www.w3.org/1999/xlink" id="wave" style="transform:rotate(0deg); transition: 0.3s" viewBox="0 0 1440 490" version="1.1" xmlns="http://www.w3.org/2000/svg"><defs><linearGradient id="sw-gradient-0" x1="0" x2="0" y1="1" y2="0"><stop stop-color="rgba(255, 255, 255, 1)" offset="0%"/><stop stop-color="rgba(255, 255, 255, 1)" offset="100%"/></linearGradient></defs><path style="transform:translate(0, 0px); opacity:1" fill="url(#sw-gradient-0)" d="M0,49L34.3,89.8C68.6,131,137,212,206,204.2C274.3,196,343,98,411,81.7C480,65,549,131,617,147C685.7,163,754,131,823,114.3C891.4,98,960,98,1029,81.7C1097.1,65,1166,33,1234,81.7C1302.9,131,1371,261,1440,334.8C1508.6,408,1577,425,1646,432.8C1714.3,441,1783,441,1851,432.8C1920,425,1989,408,2057,400.2C2125.7,392,2194,392,2263,375.7C2331.4,359,2400,327,2469,277.7C2537.1,229,2606,163,2674,130.7C2742.9,98,2811,98,2880,138.8C2948.6,180,3017,261,3086,277.7C3154.3,294,3223,245,3291,187.8C3360,131,3429,65,3497,81.7C3565.7,98,3634,196,3703,196C3771.4,196,3840,98,3909,49C3977.1,0,4046,0,4114,32.7C4182.9,65,4251,131,4320,130.7C4388.6,131,4457,65,4526,98C4594.3,131,4663,261,4731,277.7C4800,294,4869,196,4903,147L4937.1,98L4937.1,490L4902.9,490C4868.6,490,4800,490,4731,490C4662.9,490,4594,490,4526,490C4457.1,490,4389,490,4320,490C4251.4,490,4183,490,4114,490C4045.7,490,3977,490,3909,490C3840,490,3771,490,3703,490C3634.3,490,3566,490,3497,490C3428.6,490,3360,490,3291,490C3222.9,490,3154,490,3086,490C3017.1,490,2949,490,2880,490C2811.4,490,2743,490,2674,490C2605.7,490,2537,490,2469,490C2400,490,2331,490,2263,490C2194.3,490,2126,490,2057,490C1988.6,490,1920,490,1851,490C1782.9,490,1714,490,1646,490C1577.1,490,1509,490,1440,490C1371.4,490,1303,490,1234,490C1165.7,490,1097,490,1029,490C960,490,891,490,823,490C754.3,490,686,490,617,490C548.6,490,480,490,411,490C342.9,490,274,490,206,490C137.1,490,69,490,34,490L0,490Z"/></svg>