<?xml version="1.0" standalone="no"?>
<svg xmlns:xlink="http://www.w3.org/1999/xlink" id="wave" style="transform:rotate(180deg); transition: 0.3s" viewBox="0 0 1440 420" version="1.1" xmlns="http://www.w3.org/2000/svg"><defs><linearGradient id="sw-gradient-0" x1="0" x2="0" y1="1" y2="0"><stop stop-color="rgba(250, 250, 250, 1)" offset="0%"/><stop stop-color="rgba(250, 250, 250, 1)" offset="100%"/></linearGradient></defs><path style="transform:translate(0, 0px); opacity:1" fill="url(#sw-gradient-0)" d="M0,126L26.7,168C53.3,210,107,294,160,294C213.3,294,267,210,320,196C373.3,182,427,238,480,280C533.3,322,587,350,640,315C693.3,280,747,182,800,147C853.3,112,907,140,960,126C1013.3,112,1067,56,1120,91C1173.3,126,1227,252,1280,280C1333.3,308,1387,238,1440,182C1493.3,126,1547,84,1600,56C1653.3,28,1707,14,1760,7C1813.3,0,1867,0,1920,7C1973.3,14,2027,28,2080,28C2133.3,28,2187,14,2240,21C2293.3,28,2347,56,2400,77C2453.3,98,2507,112,2560,105C2613.3,98,2667,70,2720,112C2773.3,154,2827,266,2880,287C2933.3,308,2987,238,3040,224C3093.3,210,3147,252,3200,238C3253.3,224,3307,154,3360,119C3413.3,84,3467,84,3520,91C3573.3,98,3627,112,3680,126C3733.3,140,3787,154,3813,161L3840,168L3840,420L3813.3,420C3786.7,420,3733,420,3680,420C3626.7,420,3573,420,3520,420C3466.7,420,3413,420,3360,420C3306.7,420,3253,420,3200,420C3146.7,420,3093,420,3040,420C2986.7,420,2933,420,2880,420C2826.7,420,2773,420,2720,420C2666.7,420,2613,420,2560,420C2506.7,420,2453,420,2400,420C2346.7,420,2293,420,2240,420C2186.7,420,2133,420,2080,420C2026.7,420,1973,420,1920,420C1866.7,420,1813,420,1760,420C1706.7,420,1653,420,1600,420C1546.7,420,1493,420,1440,420C1386.7,420,1333,420,1280,420C1226.7,420,1173,420,1120,420C1066.7,420,1013,420,960,420C906.7,420,853,420,800,420C746.7,420,693,420,640,420C586.7,420,533,420,480,420C426.7,420,373,420,320,420C266.7,420,213,420,160,420C106.7,420,53,420,27,420L0,420Z"/></svg>